<svg width="620" height="295" viewBox="0 0 620 295" fill="none" xmlns="http://www.w3.org/2000/svg">
  <style>
    .title {
      font: 700 22px system-ui, -apple-system, "Segoe UI", Arial, sans-serif;
      fill: #70a5fd;
    }

    .label {
      font: 700 16px system-ui, -apple-system, "Segoe UI", Arial, sans-serif;
      fill: #2dd4bf;
    }

    .value {
      font: 700 16px system-ui, -apple-system, "Segoe UI", Arial, sans-serif;
      fill: #2dd4bf;
    }
  </style>

  <rect width="620" height="295" rx="12" fill="#1a1b27"/>

  <text x="24" y="42" class="title">Lilkremxxxx's GitHub Stats</text>

  
      
        <g transform="translate(30 85)" stroke="#c792ea" fill="none" stroke-width="1.8" stroke-linecap="round" stroke-linejoin="round">
          <path d="M0 -9 L2.6 -2.8 L9 -2.8 L3.8 1.1 L5.8 8 L0 4.2 L-5.8 8 L-3.8 1.1 L-9 -2.8 L-2.6 -2.8 Z" fill="#c792ea"/>
        </g>
      
      <text x="55" y="86" class="label" dominant-baseline="middle">Total Stars Earned:</text>
      <text x="320" y="86" class="value" dominant-baseline="middle">2</text>
    
      
        <g transform="translate(30 124)" stroke="#c792ea" fill="none" stroke-width="1.8" stroke-linecap="round" stroke-linejoin="round">
          <path d="M-10 0 H-5" />
          <path d="M5 0 H10" />
          <circle cx="0" cy="0" r="4.2" fill="#c792ea" stroke="none"/>
        </g>
      
      <text x="55" y="125" class="label" dominant-baseline="middle">Total Commits (2026):</text>
      <text x="320" y="125" class="value" dominant-baseline="middle">154</text>
    
      
        <g transform="translate(30 163)" stroke="#c792ea" fill="none" stroke-width="1.8" stroke-linecap="round" stroke-linejoin="round">
          <circle cx="-5" cy="-7" r="2.3"/>
          <circle cx="-5" cy="7" r="2.3"/>
          <circle cx="6" cy="0" r="2.3"/>
          <path d="M-5 -4.7 V4.7" />
          <path d="M-2.7 7 H3.7 V0" />
        </g>
      
      <text x="55" y="164" class="label" dominant-baseline="middle">Total PRs:</text>
      <text x="320" y="164" class="value" dominant-baseline="middle">2</text>
    
      
        <g transform="translate(30 202)" stroke="#c792ea" fill="none" stroke-width="1.8" stroke-linecap="round" stroke-linejoin="round">
          <path d="M-10 0 C-7 -4.5 -3.5 -6 0 -6 C3.5 -6 7 -4.5 10 0 C7 4.5 3.5 6 0 6 C-3.5 6 -7 4.5 -10 0 Z"/>
          <circle cx="0" cy="0" r="2.4" fill="#c792ea" stroke="none"/>
        </g>
      
      <text x="55" y="203" class="label" dominant-baseline="middle">Total PRs Reviewed:</text>
      <text x="320" y="203" class="value" dominant-baseline="middle">1</text>
    
      
        <g transform="translate(30 241)" stroke="#c792ea" fill="none" stroke-width="1.8" stroke-linecap="round" stroke-linejoin="round">
          <circle cx="0" cy="0" r="8"/>
          <path d="M0 -4 V1" />
          <circle cx="0" cy="5" r="1.2" fill="#c792ea" stroke="none"/>
        </g>
      
      <text x="55" y="242" class="label" dominant-baseline="middle">Total Issues:</text>
      <text x="320" y="242" class="value" dominant-baseline="middle">0</text>
    
      
        <g transform="translate(30 280)" stroke="#c792ea" fill="none" stroke-width="1.8" stroke-linecap="round" stroke-linejoin="round">
          <rect x="-7" y="-7" width="14" height="14" rx="1"/>
          <path d="M-3.5 -3.5 H3.5" />
          <path d="M-3.5 0 H3.5" />
          <path d="M-3.5 3.5 H1.5" />
        </g>
      
      <text x="55" y="281" class="label" dominant-baseline="middle">Contributed to (last year):</text>
      <text x="320" y="281" class="value" dominant-baseline="middle">6</text>
    

  <circle cx="510" cy="150" r="62" fill="#70a5fd"/>
  <circle cx="510" cy="150" r="50" fill="#1a1b27"/>
  <circle cx="510" cy="150" r="39" fill="#2dd4bf"/>
  
    <g transform="translate(486 126) scale(3)">
      <path fill="#1a1b27" d="M8 0C3.58 0 0 3.58 0 8c0 3.54 2.29 6.53 5.47 7.59.4.07.55-.17.55-.38
      0-.19-.01-.82-.01-1.49-2.01.37-2.53-.49-2.69-.94-.09-.23-.48-.94-.82-1.13
      -.28-.15-.68-.52-.01-.53.63-.01 1.08.58 1.23.82.72 1.21 1.87.87 2.33.66
      .07-.52.28-.87.51-1.07-1.78-.2-3.64-.89-3.64-3.95
      0-.87.31-1.59.82-2.15-.08-.2-.36-1.02.08-2.12 0 0 .67-.21 2.2.82
      .64-.18 1.32-.27 2-.27s1.36.09 2 .27c1.53-1.04 2.2-.82 2.2-.82.44 1.1.16 1.92.08 2.12
      .51.56.82 1.27.82 2.15 0 3.07-1.87 3.75-3.65 3.95.29.25.54.73.54 1.48
      0 1.07-.01 1.93-.01 2.2 0 .21.15.46.55.38A8.013 8.013 0 0 0 16 8c0-4.42-3.58-8-8-8z"/>
    </g>
  
</svg>